<svg width="24" height="25" viewBox="0 0 24 25" fill="none" xmlns="http://www.w3.org/2000/svg">
<path d="M17 21.5332V19.5332C17 18.4723 16.5786 17.4549 15.8284 16.7048C15.0783 15.9546 14.0609 15.5332 13 15.5332H5C3.93913 15.5332 2.92172 15.9546 2.17157 16.7048C1.42143 17.4549 1 18.4723 1 19.5332V21.5332" stroke="#FFE6E6" stroke-linecap="round" stroke-linejoin="round"/>
<path d="M9 11.5332C11.2091 11.5332 13 9.74234 13 7.5332C13 5.32406 11.2091 3.5332 9 3.5332C6.79086 3.5332 5 5.32406 5 7.5332C5 9.74234 6.79086 11.5332 9 11.5332Z" stroke="#FFE6E6" stroke-linecap="round" stroke-linejoin="round"/>
<path d="M23 21.5331V19.5331C22.9993 18.6468 22.7044 17.7859 22.1614 17.0854C21.6184 16.3849 20.8581 15.8847 20 15.6631" stroke="#FFE6E6" stroke-linecap="round" stroke-linejoin="round"/>
<path d="M16 3.66309C16.8604 3.88339 17.623 4.38379 18.1676 5.0854C18.7122 5.78701 19.0078 6.64992 19.0078 7.53809C19.0078 8.42626 18.7122 9.28917 18.1676 9.99078C17.623 10.6924 16.8604 11.1928 16 11.4131" stroke="#FFE6E6" stroke-linecap="round" stroke-linejoin="round"/>
</svg>
