<svg width="1441" height="284" viewBox="0 0 1441 284" fill="none" xmlns="http://www.w3.org/2000/svg">
<rect width="1441" height="284" fill="#FFE6E6"/>
<path d="M35.1525 205.773L26.6229 201.802C25.8447 201.44 25.5785 200.71 25.9263 199.963L34.9125 180.662C35.2603 179.915 35.9903 179.649 36.7685 180.011L45.2981 183.983C50.9637 186.62 52.5311 192.691 49.5019 199.197C46.4727 205.703 40.8181 208.411 35.1525 205.773ZM37.5528 187.194L32.6394 197.747C32.3061 198.463 32.5867 199.162 33.3338 199.51L36.6336 201.046C39.7466 202.496 42.7304 200.968 44.6146 196.922C46.4988 192.875 45.7615 189.577 42.6485 188.128L39.3488 186.591C38.6016 186.243 37.8717 186.51 37.5528 187.194Z" fill="#019785"/>
<path d="M60.5136 191.762L52.9062 211.646C52.6117 212.416 51.9022 212.733 51.1325 212.439L48.8875 211.58C48.1178 211.285 47.801 210.576 48.0955 209.806L55.7029 189.922C55.9974 189.152 56.7069 188.835 57.4766 189.13L59.7216 189.989C60.4913 190.283 60.8081 190.992 60.5136 191.762Z" fill="#019785"/>
<path d="M59.2315 206.42L61.4858 207.149C62.2045 207.382 62.5687 208.041 62.533 208.932C62.4291 210.703 63.56 212.115 66.2389 212.982C68.9505 213.86 70.3891 213.207 70.8332 211.834C71.2349 210.593 70.8132 209.554 67.1216 207.132C64.3581 205.3 59.9266 202.71 61.4914 197.875C62.7179 194.086 66.7529 192.324 71.5554 193.878C75.3452 195.104 77.8779 197.873 78.2235 201.377C78.3282 202.169 77.7564 202.598 76.8993 202.681L74.5661 202.865C73.8282 202.914 73.3343 202.322 73.0874 201.412C72.7954 200.306 72.0345 198.977 69.9436 198.301C67.8527 197.624 66.8254 198.122 66.5188 199.069C66.0642 200.474 67.3661 201.581 69.4089 202.964C73.2764 205.623 77.4773 207.921 75.775 213.181C74.4111 217.396 70.2137 219.213 64.6271 217.405C59.3998 215.714 56.824 211.74 57.5998 207.335C57.745 206.552 58.4148 206.155 59.2315 206.42Z" fill="#019785"/>
<path d="M98.695 217.604C96.7965 222.578 91.8581 225.01 86.1996 223.576C78.6104 221.652 76.2587 214.999 77.8281 208.807C79.5999 201.817 85.5003 198.106 92.0575 199.768C95.6857 200.688 98.2848 203.011 99.5737 206.172C99.8794 206.923 99.5104 207.679 98.7018 207.935L96.3591 208.652C95.6006 208.849 95.0437 208.531 94.7131 207.738C94.0192 206.004 92.8233 204.992 90.8261 204.486C87.0316 203.524 84.0345 205.705 82.9208 210.098C81.7901 214.559 83.4367 217.845 87.5641 218.892C90.5931 219.659 92.9282 218.693 94.0355 216.281C94.3542 215.583 95.0298 215.293 95.7621 215.479L97.7592 215.985C98.5914 216.196 98.9889 216.864 98.695 217.604Z" fill="#019785"/>
<path d="M121.502 223.084C120.181 227.937 115.64 229.818 110.137 228.795C104.668 227.778 101.107 224.391 101.618 219.387C101.644 218.868 101.848 217.963 102.187 216.699L105.377 204.613C105.595 203.816 106.337 203.395 107.249 203.564L109.511 203.985C110.321 204.135 110.693 204.763 110.509 205.567L107.386 217.665C107.087 218.902 106.865 219.908 106.851 220.36C106.898 222.36 108.562 223.367 111.06 223.832C113.592 224.303 115.507 223.96 116.236 222.105C116.419 221.685 116.573 220.666 116.738 219.404L118.172 206.992C118.255 206.169 118.862 205.723 119.672 205.874L121.934 206.294C122.846 206.464 123.387 207.123 123.304 207.946L121.937 220.37C121.8 221.672 121.664 222.59 121.502 223.084Z" fill="#019785"/>
<path d="M124.838 222.449L127.187 222.762C127.936 222.861 128.412 223.444 128.538 224.327C128.754 226.088 130.12 227.274 132.911 227.645C135.736 228.021 137.034 227.12 137.224 225.691C137.396 224.397 136.795 223.451 132.728 221.732C129.68 220.426 124.855 218.675 125.526 213.638C126.051 209.689 129.704 207.231 134.707 207.897C138.656 208.422 141.645 210.69 142.615 214.076C142.86 214.836 142.375 215.36 141.546 215.596L139.284 216.196C138.567 216.378 137.975 215.883 137.568 215.032C137.083 213.998 136.095 212.827 133.917 212.537C131.738 212.247 130.817 212.921 130.686 213.909C130.491 215.372 131.971 216.227 134.229 217.221C138.511 219.141 143.057 220.647 142.328 226.127C141.743 230.518 137.941 233.061 132.12 232.286C126.674 231.561 123.426 228.115 123.398 223.643C123.4 222.846 123.987 222.336 124.838 222.449Z" fill="#019785"/>
<path d="M145.763 225.12L148.124 225.321C148.877 225.385 149.38 225.945 149.547 226.82C149.846 228.569 151.267 229.689 154.073 229.928C156.913 230.17 158.166 229.208 158.289 227.771C158.399 226.471 157.754 225.554 153.61 224.03C150.504 222.87 145.601 221.35 146.032 216.286C146.37 212.317 149.902 209.688 154.931 210.116C158.9 210.454 161.993 212.578 163.123 215.913C163.404 216.661 162.944 217.208 162.128 217.483L159.896 218.189C159.189 218.405 158.574 217.939 158.127 217.108C157.593 216.098 156.551 214.975 154.361 214.789C152.172 214.603 151.284 215.32 151.199 216.312C151.074 217.783 152.593 218.567 154.895 219.452C159.264 221.168 163.876 222.456 163.407 227.965C163.032 232.379 159.354 235.099 153.503 234.601C148.029 234.135 144.621 230.847 144.381 226.381C144.345 225.585 144.908 225.047 145.763 225.12Z" fill="#019785"/>
<path d="M194.402 228.712C193.888 233.716 189.714 236.31 184.118 236.196C178.556 236.083 174.491 233.321 174.181 228.301C174.123 227.784 174.176 226.858 174.306 225.555L175.487 213.112C175.572 212.289 176.236 211.753 177.163 211.772L179.463 211.819C180.287 211.836 180.756 212.395 180.705 213.218L179.593 225.663C179.498 226.932 179.443 227.961 179.503 228.409C179.875 230.374 181.68 231.098 184.221 231.15C186.796 231.202 188.629 230.553 189.047 228.603C189.159 228.159 189.145 227.128 189.103 225.857L188.498 213.377C188.446 212.552 188.973 212.013 189.796 212.03L192.097 212.077C193.024 212.095 193.665 212.658 193.717 213.483L194.39 225.964C194.466 227.271 194.482 228.199 194.402 228.712Z" fill="#019785"/>
<path d="M213.698 211.667L216.101 211.6C216.924 211.577 217.489 212.111 217.512 212.934L218.106 234.216C218.129 235.04 217.595 235.604 216.772 235.627L209.598 235.828C208.774 235.851 208.039 235.356 207.913 234.535L205.092 218.4C204.973 217.853 204.654 217.485 204.07 217.501C203.487 217.517 203.292 217.9 203.308 218.484L203.758 234.617C203.781 235.441 203.248 236.005 202.424 236.028L200.021 236.095C199.197 236.118 198.633 235.584 198.61 234.761L198.015 213.479C197.992 212.655 198.526 212.091 199.35 212.068L206.524 211.867C207.348 211.844 208.048 212.34 208.209 213.16L210.96 229.263C211.045 229.844 211.399 230.212 212.017 230.195C212.6 230.179 212.83 229.795 212.813 229.177L212.363 213.078C212.34 212.254 212.874 211.69 213.698 211.667Z" fill="#019785"/>
<path d="M226.807 212.313L228.111 233.563C228.161 234.385 227.647 234.967 226.824 235.018L224.425 235.165C223.602 235.215 223.02 234.701 222.97 233.878L221.666 212.628C221.616 211.806 222.13 211.224 222.953 211.173L225.352 211.026C226.175 210.975 226.757 211.49 226.807 212.313Z" fill="#019785"/>
<path d="M249.592 237.639L244.24 234.62C243.584 234.233 242.601 234.049 241.637 234.07C235.208 234.291 230.342 229.813 229.697 222.907C229.027 215.727 233.31 210.257 240.114 209.622C246.884 208.991 252.105 213.573 252.775 220.753C253.168 224.958 251.848 228.185 249.866 230.233C249.141 230.956 249.323 231.801 250.154 232.206L251.853 233.048C252.613 233.425 252.677 234.109 252.371 234.896L251.478 237.152C251.169 237.905 250.283 238.022 249.592 237.639ZM234.822 222.394C235.25 226.975 237.976 229.583 241.942 229.213C245.874 228.846 248.071 225.779 247.644 221.197C247.219 216.65 244.493 214.042 240.561 214.409C236.595 214.779 234.398 217.847 234.822 222.394Z" fill="#019785"/>
<path d="M276.007 222.144C276.293 227.166 272.582 230.389 267.039 231.163C261.53 231.933 257.078 229.851 255.976 224.942C255.837 224.442 255.743 223.519 255.664 222.212L254.857 209.739C254.811 208.913 255.381 208.279 256.3 208.151L258.578 207.832C259.394 207.718 259.947 208.196 260.027 209.017L260.901 221.48C261.009 222.748 261.118 223.773 261.247 224.206C261.926 226.087 263.824 226.516 266.34 226.164C268.891 225.808 270.598 224.876 270.702 222.885C270.742 222.429 270.565 221.413 270.321 220.164L267.746 207.938C267.564 207.131 267.998 206.516 268.815 206.402L271.093 206.084C272.011 205.955 272.734 206.409 272.916 207.216L275.559 219.432C275.841 220.711 276.004 221.624 276.007 222.144Z" fill="#019785"/>
<path d="M294.546 206.732L284.784 208.521C283.974 208.669 283.532 209.309 283.681 210.12L284.096 212.383C284.244 213.193 284.871 213.567 285.636 213.357L294.241 210.977C295.04 210.761 295.673 211.169 295.821 211.979L296.143 213.736C296.292 214.546 295.863 215.253 295.065 215.469L286.459 217.849C285.694 218.059 285.259 218.732 285.408 219.543L285.816 221.772C285.965 222.583 286.604 223.024 287.415 222.876L297.176 221.087C297.987 220.938 298.626 221.38 298.775 222.19L299.134 224.149C299.282 224.96 298.841 225.6 298.03 225.748L283.203 228.465C282.392 228.614 281.753 228.172 281.604 227.362L277.767 206.421C277.618 205.61 278.059 204.971 278.87 204.822L293.698 202.105C294.508 201.956 295.148 202.398 295.296 203.208L295.649 205.134C295.798 205.944 295.356 206.584 294.546 206.732Z" fill="#019785"/>
<path d="M329.99 209.646C330.624 214.932 327.385 219.383 321.709 220.746C314.096 222.575 308.918 217.779 307.427 211.569C305.742 204.557 309.238 198.526 315.816 196.947C319.455 196.072 322.837 196.92 325.448 199.118C326.068 199.64 326.094 200.481 325.497 201.084L323.757 202.809C323.177 203.336 322.536 203.314 321.875 202.766C320.454 201.554 318.924 201.215 316.921 201.696C313.115 202.61 311.476 205.935 312.535 210.342C313.61 214.816 316.597 216.959 320.737 215.965C323.775 215.235 325.392 213.293 325.25 210.643C325.207 209.876 325.671 209.306 326.405 209.129L328.409 208.648C329.243 208.448 329.906 208.854 329.99 209.646Z" fill="#019785"/>
<path d="M338.657 190.938C345.558 188.97 351.17 192.618 353.147 199.553C355.125 206.488 352.283 212.547 345.382 214.516C338.447 216.494 332.836 212.845 330.858 205.91C328.88 198.976 331.722 192.916 338.657 190.938ZM339.975 195.561C336.112 196.663 334.549 200.073 335.811 204.498C337.073 208.923 340.199 210.995 344.063 209.893C347.893 208.8 349.456 205.391 348.194 200.966C346.932 196.541 343.806 194.469 339.975 195.561Z" fill="#019785"/>
<path d="M367.753 182.081L375.078 179.624C375.859 179.361 376.555 179.708 376.817 180.489L383.588 200.673C383.85 201.455 383.504 202.15 382.722 202.412L380.443 203.177C379.662 203.439 378.966 203.093 378.704 202.312L373.528 186.88C373.375 186.424 372.94 186.208 372.484 186.361C371.996 186.525 371.704 186.949 371.835 187.448L375.017 199.094C375.247 199.886 374.759 200.593 373.978 200.855L367.662 202.973C366.881 203.235 366.098 202.955 365.804 202.184L361.439 191.116C361.243 190.639 360.754 190.477 360.266 190.641C359.777 190.805 359.582 191.196 359.746 191.684L364.868 206.953C365.13 207.734 364.784 208.43 364.003 208.692L361.724 209.456C360.943 209.719 360.247 209.372 359.985 208.591L353.214 188.407C352.952 187.625 353.298 186.93 354.079 186.668L361.307 184.243C362.088 183.981 362.914 184.283 363.208 185.054L368.02 197.239C368.25 197.814 368.869 198.041 369.455 197.845C370.041 197.648 370.366 197.104 370.202 196.507L366.724 183.874C366.527 183.071 366.971 182.343 367.753 182.081Z" fill="#019785"/>
<path d="M398.772 183.507C401.705 183.491 403.416 184.603 404.297 186.913C405.74 190.699 403.92 194.407 399.557 196.071L389.129 200.047C388.327 200.353 387.618 200.036 387.324 199.265L379.738 179.373C379.445 178.603 379.762 177.894 380.564 177.588L388.778 174.456C393.141 172.792 396.846 174.025 398.326 177.907C398.877 179.351 398.642 180.47 397.882 181.752C397.468 182.498 397.956 183.488 398.772 183.507ZM386.068 181.516L386.998 183.955C387.267 184.66 387.964 184.946 388.734 184.652L391.59 183.563C392.841 183.086 394.19 182.094 393.431 180.105C392.673 178.115 391.018 178.306 389.767 178.783L386.911 179.872C386.141 180.165 385.799 180.81 386.068 181.516ZM392.344 194.117L397.445 192.172C399.242 191.487 399.81 190.278 399.149 188.545C398.488 186.813 397.247 186.257 395.451 186.942L390.349 188.887C389.579 189.181 389.249 189.858 389.519 190.564L390.608 193.42C390.889 194.158 391.574 194.411 392.344 194.117Z" fill="#019785"/>
<path d="M405.533 169.255L413.615 188.952C413.927 189.714 413.628 190.431 412.865 190.744L410.641 191.656C409.879 191.969 409.162 191.669 408.849 190.907L400.768 171.21C400.455 170.448 400.755 169.731 401.517 169.418L403.741 168.506C404.504 168.193 405.22 168.493 405.533 169.255Z" fill="#019785"/>
<path d="M422.775 160.323L424.976 159.356C425.73 159.024 426.454 159.306 426.786 160.06L435.352 179.551C435.684 180.305 435.402 181.029 434.648 181.361L428.078 184.249C427.323 184.58 426.456 184.399 426.03 183.686L417.339 169.801C417.024 169.34 416.589 169.118 416.054 169.353C415.52 169.588 415.483 170.017 415.718 170.551L422.212 185.326C422.544 186.081 422.262 186.805 421.507 187.136L419.307 188.104C418.552 188.435 417.828 188.153 417.497 187.399L408.93 167.908C408.599 167.154 408.881 166.43 409.635 166.098L416.205 163.211C416.96 162.879 417.796 163.074 418.253 163.773L426.867 177.654C427.165 178.161 427.631 178.368 428.197 178.12C428.731 177.885 428.799 177.442 428.551 176.877L422.071 162.133C421.739 161.379 422.021 160.654 422.775 160.323Z" fill="#019785"/>
<path d="M453.741 170.823L450.98 167.768C450.422 167.16 449.655 167.071 448.972 167.551L443.499 171.624C442.847 172.09 442.541 172.96 442.666 173.776L442.967 175.993C443.092 176.809 442.742 177.586 441.999 177.943L439.522 179.131C438.779 179.488 438.185 179.201 438.06 178.385L434.642 156.259C434.517 155.443 434.944 154.667 435.718 154.296L441.353 151.592C442.096 151.236 442.969 151.388 443.527 151.996L458.648 168.507C459.206 169.115 459.088 169.743 458.345 170.1L455.868 171.288C455.125 171.645 454.269 171.446 453.741 170.823ZM439.933 159.586L441.042 165.947C441.167 166.763 441.717 166.957 442.37 166.491L445.961 163.816C446.63 163.305 446.734 162.569 446.161 161.93L442.843 158.19C442.299 157.613 441.579 157.54 440.866 157.881C440.185 158.208 439.791 158.816 439.933 159.586Z" fill="#019785"/>
<path d="M465.236 140.973L466.215 142.864C466.594 143.596 466.359 144.336 465.627 144.715L461.663 146.768C460.931 147.147 460.696 147.887 461.075 148.619L468.621 163.195C469 163.927 468.765 164.667 468.033 165.046L465.898 166.151C465.167 166.53 464.426 166.295 464.047 165.563L456.5 150.987C456.122 150.255 455.381 150.02 454.649 150.399L450.685 152.451C449.953 152.83 449.213 152.595 448.834 151.863L447.855 149.972C447.476 149.241 447.711 148.5 448.443 148.121L463.385 140.385C464.117 140.006 464.857 140.241 465.236 140.973Z" fill="#019785"/>
<path d="M471.582 137.46L481.757 156.161C482.151 156.885 481.931 157.63 481.207 158.024L479.095 159.173C478.371 159.567 477.626 159.347 477.232 158.623L467.058 139.922C466.664 139.198 466.884 138.453 467.608 138.059L469.719 136.91C470.443 136.516 471.188 136.736 471.582 137.46Z" fill="#019785"/>
<path d="M483.504 128.905C489.724 125.326 496.051 127.51 499.647 133.76C503.243 140.011 501.95 146.578 495.73 150.157C489.479 153.753 483.152 151.569 479.556 145.319C475.96 139.068 477.253 132.501 483.504 128.905ZM485.901 133.072C482.418 135.076 481.726 138.762 484.021 142.75C486.316 146.739 489.85 147.993 493.332 145.99C496.785 144.004 497.477 140.317 495.183 136.329C492.888 132.341 489.353 131.086 485.901 133.072Z" fill="#019785"/>
<path d="M509.214 113.726L511.258 112.461C511.959 112.027 512.716 112.205 513.149 112.906L524.352 131.01C524.785 131.711 524.607 132.467 523.906 132.901L517.803 136.677C517.103 137.111 516.218 137.052 515.697 136.406L505.154 123.87C504.777 123.457 504.316 123.298 503.819 123.605C503.323 123.913 503.347 124.342 503.654 124.839L512.146 138.563C512.579 139.264 512.401 140.02 511.7 140.454L509.656 141.718C508.956 142.152 508.199 141.974 507.766 141.273L496.563 123.169C496.13 122.468 496.308 121.712 497.009 121.278L503.112 117.502C503.812 117.068 504.667 117.145 505.218 117.773L515.684 130.316C516.05 130.776 516.541 130.917 517.066 130.592C517.563 130.285 517.568 129.837 517.243 129.311L508.769 115.616C508.336 114.915 508.514 114.159 509.214 113.726Z" fill="#019785"/>
<path d="M523.993 122.699L525.972 121.397C526.603 120.982 527.345 121.11 528.018 121.695C529.334 122.883 531.144 122.885 533.496 121.337C535.877 119.77 536.267 118.239 535.474 117.034C534.756 115.944 533.682 115.623 529.484 116.989C526.325 117.999 521.533 119.837 518.739 115.592C516.549 112.265 517.698 108.014 521.915 105.239C525.242 103.049 528.986 102.805 531.937 104.727C532.62 105.141 532.597 105.855 532.126 106.576L530.81 108.511C530.387 109.118 529.616 109.132 528.751 108.756C527.706 108.293 526.193 108.055 524.358 109.263C522.522 110.472 522.268 111.584 522.815 112.416C523.627 113.65 525.305 113.326 527.662 112.597C532.156 111.243 536.576 109.402 539.616 114.02C542.051 117.72 540.844 122.132 535.939 125.361C531.35 128.381 526.638 127.906 523.686 124.545C523.166 123.942 523.276 123.171 523.993 122.699Z" fill="#019785"/>
<path d="M550.157 86.4445C556.228 82.6178 562.638 84.5445 566.483 90.6449C570.328 96.7453 569.301 103.359 563.23 107.186C557.129 111.031 550.719 109.104 546.874 103.004C543.029 96.9035 544.056 90.2896 550.157 86.4445ZM552.72 90.5115C549.321 92.6537 548.778 96.3648 551.232 100.257C553.685 104.15 557.268 105.261 560.666 103.119C564.036 100.995 564.579 97.284 562.126 93.3914C559.672 89.4987 556.09 88.3876 552.72 90.5115Z" fill="#019785"/>
<path d="M581.325 74.2253L572.943 78.865C572.222 79.2641 572.007 80.0109 572.406 80.7319L573.67 83.0152C574.069 83.7362 574.799 83.9208 575.441 83.4482L582.856 78.4801C583.527 77.9908 584.257 78.1754 584.656 78.8964L585.687 80.7591C586.086 81.4801 585.905 82.287 585.217 82.7462L577.819 87.7443C577.161 88.1869 576.963 88.9637 577.362 89.6847L580.355 95.0924C580.755 95.8135 580.54 96.5602 579.819 96.9594L577.716 98.1235C576.995 98.5226 576.248 98.308 575.849 97.5869L565.538 78.9603C565.139 78.2393 565.354 77.4925 566.075 77.0934L578.963 69.9592C579.684 69.5601 580.431 69.7747 580.83 70.4957L581.861 72.3584C582.26 73.0794 582.046 73.8262 581.325 74.2253Z" fill="#019785"/>
<path d="M609.713 60.3685L601.036 64.4297C600.289 64.779 600.025 65.5095 600.374 66.2559L601.48 68.6196C601.83 69.366 602.546 69.5996 603.217 69.1715L610.952 64.7172C611.655 64.2746 612.371 64.5082 612.72 65.2546L613.623 67.1828C613.972 67.9292 613.736 68.7219 613.019 69.1335L605.299 73.6189C604.613 74.0159 604.363 74.7775 604.712 75.5239L607.332 81.122C607.681 81.8684 607.417 82.5989 606.67 82.9483L604.493 83.9672C603.747 84.3166 603.016 84.0519 602.667 83.3054L593.642 64.0231C593.293 63.2767 593.557 62.5462 594.304 62.1968L607.646 55.9522C608.392 55.6028 609.123 55.8675 609.472 56.6139L610.375 58.5422C610.724 59.2886 610.459 60.0191 609.713 60.3685Z" fill="#019785"/>
<path d="M623.068 49.158C629.712 46.443 635.69 49.4529 638.418 56.1281C641.146 62.8032 638.987 69.1386 632.343 71.8536C625.668 74.5815 619.69 71.5717 616.962 64.8965C614.234 58.2213 616.393 51.8859 623.068 49.158ZM624.887 53.6081C621.168 55.128 619.989 58.6886 621.73 62.948C623.471 67.2073 626.806 68.9233 630.525 67.4035C634.212 65.8966 635.391 62.336 633.65 58.0766C631.909 53.8172 628.574 52.1012 624.887 53.6081Z" fill="#019785"/>
<path d="M657.329 50.1746C660.39 50.0795 661.751 51.5661 662.744 53.7649L664.434 57.4289C664.558 57.6766 664.682 57.9243 664.782 58.1072C665.165 58.8827 664.968 59.4616 664.256 59.7126L661.988 60.511C661.114 60.819 660.198 60.5955 659.814 59.7115L657.965 55.7026C656.725 53.0084 654.855 52.8662 652.879 53.562L649.867 54.6228C649.057 54.908 648.721 55.6087 648.995 56.386L651.265 62.8314C651.539 63.6087 651.203 64.3094 650.426 64.5832L648.159 65.3816C647.381 65.6554 646.68 65.3197 646.407 64.5423L639.335 44.4614C639.061 43.6841 639.397 42.9833 640.206 42.6982L648.53 39.7667C652.935 38.2154 656.709 39.8351 658.021 43.5598C658.694 45.4707 658.198 46.9561 656.696 48.6865C656.141 49.2823 656.504 50.2102 657.329 50.1746ZM648.215 50.035L651.162 48.997C652.393 48.5636 653.746 47.6502 653.107 45.8365C652.457 43.9903 650.83 44.1264 649.599 44.5598L646.652 45.5978C645.875 45.8715 645.528 46.5399 645.778 47.2524L646.531 49.3901C646.759 50.0379 647.437 50.3088 648.215 50.035Z" fill="#019785"/>
<path d="M677.278 30.5411L684.682 28.3329C685.472 28.0973 686.155 28.4668 686.391 29.2565L692.476 49.6583C692.711 50.448 692.342 51.1315 691.552 51.3671L689.249 52.0541C688.459 52.2896 687.775 51.9202 687.54 51.1304L682.888 35.533C682.75 35.0723 682.323 34.8414 681.863 34.9788C681.369 35.126 681.062 35.5399 681.177 36.0433L683.963 47.7896C684.166 48.5892 683.655 49.2791 682.865 49.5146L676.482 51.4186C675.692 51.6542 674.92 51.347 674.651 50.5671L670.663 39.3583C670.483 38.8745 670 38.6961 669.506 38.8433C669.012 38.9906 668.805 39.375 668.952 39.8686L673.555 55.3016C673.79 56.0913 673.421 56.7748 672.631 57.0104L670.328 57.6974C669.538 57.9329 668.854 57.5635 668.619 56.7737L662.534 36.372C662.298 35.5822 662.668 34.8987 663.458 34.6632L670.763 32.4844C671.552 32.2488 672.368 32.579 672.636 33.359L677.034 45.6999C677.243 46.2824 677.854 46.53 678.447 46.3534C679.039 46.1767 679.382 45.6444 679.238 45.0423L676.19 32.299C676.02 31.4896 676.488 30.7767 677.278 30.5411Z" fill="#019785"/>
<path d="M715.602 37.6041C716.409 42.5692 713.055 46.161 707.622 47.5088C702.223 48.8483 697.579 47.2409 695.972 42.4742C695.781 41.9908 695.591 41.0827 695.377 39.7914L693.275 27.4701C693.144 26.6536 693.645 25.9633 694.544 25.74L696.777 25.1861C697.577 24.9876 698.176 25.4051 698.341 26.2133L700.51 38.5181C700.749 39.7677 700.964 40.7759 701.138 41.1926C702.009 42.9931 703.941 43.2214 706.407 42.6095C708.907 41.9894 710.508 40.8846 710.403 38.894C710.395 38.4359 710.114 37.4443 709.741 36.2277L705.907 24.3363C705.642 23.553 706.009 22.8957 706.809 22.6973L709.042 22.1433C709.942 21.92 710.708 22.2962 710.973 23.0795L714.874 34.9544C715.288 36.196 715.545 37.0876 715.602 37.6041Z" fill="#019785"/>
<path d="M726.501 37.8703L735.741 35.9198C736.547 35.7496 737.198 36.1737 737.368 36.98L737.815 39.0967C737.985 39.903 737.561 40.5541 736.755 40.7243L722.845 43.6607C722.039 43.8309 721.388 43.4069 721.218 42.6005L720.558 39.4759C720.388 38.6695 720.269 37.6067 720.267 36.7649L720.341 20.9914C720.346 20.1832 720.871 19.5109 721.677 19.3407L724.029 18.8442C724.835 18.6739 725.386 19.1193 725.381 19.9275L725.338 35.5188C725.344 36.0441 725.411 36.6966 725.525 37.2342C725.631 37.7382 726.031 37.9696 726.501 37.8703Z" fill="#019785"/>
<path d="M756.929 35.6954L755.093 32.0093C754.719 31.2732 754.005 30.9808 753.217 31.2592L746.85 33.7072C746.096 33.9796 745.567 34.7354 745.467 35.555L745.161 37.7709C745.061 38.5904 744.514 39.2448 743.702 39.3879L740.997 39.8651C740.185 40.0082 739.69 39.5725 739.79 38.753L742.46 16.5242C742.559 15.7047 743.18 15.0722 744.025 14.9231L750.18 13.8377C750.991 13.6945 751.791 14.0765 752.165 14.8126L762.278 34.7869C762.652 35.5229 762.369 36.0958 761.558 36.2389L758.852 36.716C758.041 36.8592 757.269 36.4374 756.929 35.6954ZM746.658 21.1535L746.013 27.5784C745.913 28.398 746.391 28.7322 747.145 28.4598L751.324 26.851C752.106 26.5387 752.404 25.8585 752.025 25.0886L749.837 20.5929C749.469 19.8906 748.795 19.626 748.017 19.7632C747.273 19.8944 746.73 20.3737 746.658 21.1535Z" fill="#019785"/>
<path d="M764.85 27.0965L767.195 26.761C767.943 26.654 768.56 27.0861 768.92 27.9019C769.605 29.5383 771.241 30.3101 774.029 29.9114C776.85 29.5078 777.855 28.2887 777.651 26.861C777.466 25.5693 776.631 24.8216 772.25 24.2688C768.962 23.8372 763.844 23.4594 763.124 18.4286C762.56 14.4854 765.41 11.1293 770.407 10.4145C774.35 9.85039 777.842 11.224 779.693 14.2199C780.135 14.8852 779.81 15.5214 779.076 15.9731L777.061 17.1633C776.42 17.5325 775.716 17.217 775.094 16.5081C774.346 15.6438 773.079 14.7845 770.903 15.0957C768.728 15.4069 768.024 16.3055 768.165 17.2913C768.374 18.7529 770.03 19.1751 772.473 19.5194C777.115 20.2081 781.899 20.4257 782.682 25.8985C783.309 30.2835 780.338 33.7611 774.525 34.5927C769.086 35.3707 765.026 32.9336 763.787 28.6361C763.573 27.8689 764 27.2181 764.85 27.0965Z" fill="#019785"/>
<path d="M820.678 4.96598L823.515 4.69608C824.336 4.61804 824.832 5.12272 824.77 5.92196L823.135 27.5324C823.073 28.3317 822.476 28.9404 821.655 29.0185L815.331 29.62C814.511 29.6981 813.809 29.2129 813.663 28.399L810.245 12.4087C810.127 11.9025 809.821 11.5866 809.172 11.6484C808.522 11.7102 808.281 12.0781 808.262 12.5973L807.92 28.9453C807.929 29.7722 807.332 30.3809 806.512 30.459L800.188 31.0605C799.367 31.1386 798.666 30.6534 798.454 29.8802L792.774 8.96559C792.562 8.19236 792.955 7.60314 793.775 7.5251L796.646 7.25195C797.467 7.17391 798.134 7.66232 798.346 8.43555L802.013 23.7812C802.134 24.3217 802.61 24.6212 803.157 24.5692C803.704 24.5172 804.116 24.1331 804.133 23.5796L804.362 7.86325C804.387 7.03307 804.987 6.45853 805.808 6.38048L811.448 5.84395C812.269 5.76591 813.001 6.21363 813.148 7.02755L816.37 22.4155C816.491 22.9559 816.968 23.2555 817.515 23.2035C818.096 23.1482 818.474 22.7673 818.49 22.2139L819.198 6.45199C819.26 5.65275 819.858 5.04402 820.678 4.96598Z" fill="#019785"/>
<path d="M833.899 5.45377L835.364 26.6932C835.42 27.5154 834.91 28.1013 834.088 28.158L831.69 28.3233C830.868 28.38 830.282 27.8696 830.225 27.0475L828.761 5.80802C828.704 4.98585 829.215 4.39995 830.037 4.34327L832.435 4.17795C833.257 4.12127 833.843 4.6316 833.899 5.45377Z" fill="#019785"/>
<path d="M856.862 4.17713L856.971 6.30329C857.014 7.12632 856.493 7.70331 855.67 7.74576L851.212 7.97574C850.389 8.01819 849.869 8.59518 849.911 9.41821L850.757 25.8102C850.799 26.6332 850.279 27.2102 849.456 27.2527L847.056 27.3765C846.233 27.419 845.656 26.8986 845.613 26.0756L844.767 9.68357C844.725 8.86054 844.148 8.34016 843.325 8.38261L838.867 8.61259C838.044 8.65504 837.467 8.13466 837.424 7.31163L837.315 5.18547C837.272 4.36245 837.793 3.78545 838.616 3.743L855.419 2.87617C856.242 2.83372 856.819 3.3541 856.862 4.17713Z" fill="#019785"/>
<path d="M877.514 2.20291L879.917 2.13899C880.741 2.11708 881.305 2.65169 881.326 3.47552L881.893 24.7578C881.915 25.5817 881.38 26.1455 880.556 26.1674L878.153 26.2313C877.329 26.2533 876.766 25.7186 876.744 24.8948L876.562 18.0639C876.54 17.24 875.976 16.7054 875.152 16.7273L867.463 16.9319C866.639 16.9538 866.105 17.5176 866.127 18.3415L866.308 25.1724C866.33 25.9962 865.796 26.5601 864.972 26.582L862.569 26.6459C861.745 26.6678 861.181 26.1332 861.16 25.3094L860.593 4.02706C860.571 3.20323 861.106 2.63939 861.93 2.61748L864.333 2.55356C865.157 2.53164 865.72 3.06625 865.742 3.89009L865.924 10.721C865.946 11.5449 866.51 12.0795 867.334 12.0576L875.023 11.853C875.847 11.8311 876.381 11.2673 876.359 10.4434L876.178 3.61249C876.156 2.78866 876.69 2.22483 877.514 2.20291Z" fill="#019785"/>
<path d="M911.584 2.09101L913.987 2.10814C914.811 2.11401 915.357 2.66733 915.351 3.49143L915.199 24.7807C915.193 25.6048 914.64 26.1503 913.816 26.1445L906.64 26.0933C905.815 26.0874 905.098 25.5672 905.001 24.7424L902.747 8.51817C902.648 7.96803 902.342 7.58811 901.758 7.58395C901.174 7.57979 900.965 7.95604 900.961 8.53978L900.846 24.6784C900.84 25.5026 900.287 26.048 899.463 26.0422L897.059 26.025C896.235 26.0192 895.69 25.4658 895.696 24.6417L895.847 3.35243C895.853 2.52833 896.407 1.98285 897.231 1.98872L904.407 2.03986C905.231 2.04574 905.914 2.56569 906.046 3.39078L908.231 19.5802C908.296 20.1644 908.636 20.5446 909.254 20.549C909.838 20.5531 910.081 20.1771 910.086 19.5591L910.2 3.45472C910.206 2.63062 910.76 2.08513 911.584 2.09101Z" fill="#019785"/>
<path d="M936.144 25.3797L935.091 21.3987C934.873 20.6024 934.233 20.1716 933.405 20.2852L926.674 21.3964C925.881 21.5109 925.21 22.1442 924.947 22.9267L924.199 25.035C923.936 25.8175 923.268 26.3479 922.444 26.3241L919.698 26.2449C918.875 26.2211 918.478 25.6944 918.741 24.9119L925.846 3.68077C926.109 2.89825 926.845 2.40419 927.703 2.42895L933.95 2.60921C934.773 2.63298 935.479 3.16864 935.697 3.96503L941.566 25.5705C941.784 26.3669 941.391 26.8709 940.567 26.8471L937.822 26.7679C936.998 26.7441 936.327 26.1751 936.144 25.3797ZM929.023 9.06277L927.093 15.2249C926.83 16.0075 927.23 16.4312 928.023 16.3167L932.442 15.5854C933.27 15.4375 933.7 14.8316 933.484 14.0009L932.249 9.15587C932.031 8.39381 931.424 7.99841 930.634 7.97563C929.879 7.95384 929.251 8.31358 929.023 9.06277Z" fill="#019785"/>
<path d="M961.468 5.18325L961.366 7.30976C961.326 8.13293 960.751 8.65526 959.928 8.61557L955.469 8.40063C954.646 8.36095 954.07 8.88327 954.031 9.70644L953.24 26.1012C953.201 26.9244 952.625 27.4467 951.802 27.407L949.401 27.2913C948.578 27.2516 948.056 26.6763 948.095 25.8532L948.886 9.45843C948.926 8.63526 948.403 8.06003 947.58 8.02035L943.121 7.80541C942.298 7.76573 941.776 7.19049 941.815 6.36733L941.918 4.24081C941.958 3.41764 942.533 2.89532 943.356 2.935L960.162 3.74517C960.985 3.78485 961.508 4.36008 961.468 5.18325Z" fill="#019785"/>
<path d="M984.255 21.9369C983.505 26.911 979.213 29.3048 973.629 28.9264C968.079 28.5504 964.149 25.5996 964.076 20.5698C964.043 20.0513 964.14 19.1286 964.331 17.8337L966.098 5.46C966.222 4.64241 966.91 4.13835 967.835 4.20101L970.131 4.35652C970.953 4.41222 971.396 4.99288 971.306 5.81279L969.607 18.1911C969.452 19.4541 969.348 20.4796 969.387 20.9296C969.665 22.9103 971.435 23.7185 973.97 23.8902C976.54 24.0643 978.402 23.5021 978.911 21.5748C979.044 21.1364 979.079 20.1063 979.097 18.834L979.083 6.33966C979.07 5.51278 979.621 4.99944 980.443 5.05514L982.738 5.21065C983.664 5.27331 984.277 5.86557 984.29 6.69245L984.373 19.1915C984.387 20.5003 984.359 21.4277 984.255 21.9369Z" fill="#019785"/>
<path d="M1004.48 19.8043C1007.31 20.9817 1007.93 22.8976 1007.93 25.3101L1007.96 29.3454C1007.97 29.622 1007.98 29.8987 1007.99 30.1069C1008.02 30.9711 1007.6 31.4172 1006.85 31.3515L1004.46 31.1424C1003.53 31.0618 1002.79 30.48 1002.81 29.5162L1002.78 25.1017C1002.76 22.1359 1001.12 21.234 999.029 21.0518L995.848 20.7741C994.993 20.6995 994.398 21.199 994.326 22.0201L993.732 28.8275C993.66 29.6485 993.065 30.1481 992.244 30.0764L989.849 29.8674C989.028 29.7957 988.529 29.2006 988.601 28.3796L990.452 7.17041C990.524 6.34941 991.119 5.84985 991.974 5.9245L1000.77 6.69192C1005.42 7.09803 1008.19 10.1317 1007.84 14.0656C1007.67 16.0839 1006.6 17.2318 1004.52 18.1875C1003.77 18.5011 1003.72 19.4961 1004.48 19.8043ZM996.238 15.9136L999.351 16.1853C1000.65 16.2988 1002.26 16.0256 1002.43 14.11C1002.6 12.1601 1001.06 11.6122 999.76 11.4988L996.647 11.227C995.826 11.1554 995.234 11.6207 995.168 12.3733L994.971 14.631C994.911 15.3152 995.417 15.8419 996.238 15.9136Z" fill="#019785"/>
<path d="M1028.19 32.2139L1027.45 28.1637C1027.29 27.353 1026.69 26.8743 1025.85 26.9239L1019.06 27.5143C1018.26 27.5675 1017.54 28.1473 1017.22 28.9073L1016.31 30.9519C1015.99 31.7119 1015.28 32.1893 1014.46 32.1023L1011.73 31.8121C1010.91 31.7251 1010.55 31.1694 1010.88 30.4094L1019.59 9.78744C1019.92 9.02745 1020.69 8.59141 1021.54 8.68208L1027.76 9.34209C1028.57 9.42913 1029.24 10.0175 1029.39 10.8282L1033.58 32.821C1033.74 33.6318 1033.31 34.1041 1032.49 34.017L1029.76 33.7269C1028.94 33.6399 1028.31 33.021 1028.19 32.2139ZM1022.35 15.3978L1019.95 21.3933C1019.63 22.1533 1019.99 22.6066 1020.79 22.5534L1025.25 22.1639C1026.09 22.0802 1026.57 21.5091 1026.41 20.6642L1025.56 15.7386C1025.4 14.962 1024.82 14.5212 1024.04 14.4377C1023.29 14.358 1022.63 14.6683 1022.35 15.3978Z" fill="#019785"/>
<path d="M1043.66 30.4303L1053.03 31.5838C1053.85 31.6845 1054.33 32.2969 1054.23 33.1148L1053.96 35.262C1053.86 36.0799 1053.25 36.5581 1052.43 36.4574L1038.32 34.7208C1037.5 34.6202 1037.02 34.0078 1037.13 33.1898L1037.52 30.0202C1037.62 29.2023 1037.85 28.1584 1038.12 27.3614L1043.31 12.4658C1043.58 11.7029 1044.29 11.2373 1045.11 11.3379L1047.49 11.6315C1048.31 11.7322 1048.69 12.3321 1048.42 13.0949L1043.32 27.8286C1043.16 28.3272 1043.01 28.9663 1042.94 29.5116C1042.88 30.0229 1043.18 30.3715 1043.66 30.4303Z" fill="#019785"/>
<path d="M1076.42 39.7762L1067.1 38.4261C1066.26 38.3029 1065.79 37.6803 1065.91 36.8647L1068.96 15.7952C1069.08 14.9796 1069.7 14.5147 1070.55 14.6379L1079.87 15.9881C1086.05 16.8849 1089.3 22.2481 1088.27 29.3506C1087.24 36.4531 1082.6 40.6731 1076.42 39.7762ZM1073.37 21.292L1071.7 32.8123C1071.59 33.5939 1072.06 34.1825 1072.87 34.3007L1076.47 34.823C1079.87 35.3158 1082.29 32.9948 1082.93 28.577C1083.57 24.1592 1081.92 21.2128 1078.52 20.7201L1074.92 20.1977C1074.1 20.0795 1073.48 20.5444 1073.37 21.292Z" fill="#019785"/>
<path d="M1112.83 22.3883L1104.51 33.6037C1104.24 34.0116 1103.68 34.2346 1103.17 34.1526C1102.66 34.0706 1102.27 34.3549 1102.19 34.8634L1101.01 42.1859C1100.88 42.9995 1100.25 43.4544 1099.43 43.3231L1097.09 42.9458C1096.28 42.8146 1095.82 42.1847 1095.96 41.3711L1097.14 34.0486C1097.22 33.5401 1096.93 33.1464 1096.39 33.0589C1095.88 32.9769 1095.46 32.5952 1095.29 32.1163L1090.93 18.8557C1090.67 18.0497 1091.06 17.6243 1091.87 17.7556L1094.75 18.2204C1095.56 18.3516 1096.23 18.9465 1096.49 19.7525L1098.8 27.8132C1099.03 28.5798 1099.39 29.1593 1100.2 29.2906L1100.78 29.3836C1101.59 29.5148 1102.11 29.0774 1102.57 28.4202L1107.3 21.4969C1107.76 20.8058 1108.62 20.457 1109.43 20.5882L1112.31 21.053C1113.13 21.1842 1113.32 21.7026 1112.83 22.3883Z" fill="#019785"/>
<path d="M1131.68 29.2349L1121.91 27.5088C1121.1 27.3654 1120.46 27.8109 1120.32 28.6225L1119.92 30.8881C1119.78 31.6996 1120.23 32.2686 1121.02 32.3384L1129.92 33.1075C1130.74 33.1832 1131.19 33.786 1131.05 34.5976L1130.74 36.356C1130.6 37.1675 1129.95 37.6806 1129.12 37.6049L1120.23 36.8358C1119.44 36.766 1118.8 37.2453 1118.65 38.0569L1118.26 40.2887C1118.11 41.1002 1118.56 41.7368 1119.37 41.8802L1129.14 43.6063C1129.96 43.7496 1130.4 44.3862 1130.26 45.1978L1129.91 47.1591C1129.77 47.9706 1129.13 48.4161 1128.32 48.2727L1113.48 45.6507C1112.66 45.5074 1112.22 44.8708 1112.36 44.0592L1116.06 23.0939C1116.21 22.2823 1116.84 21.8369 1117.66 21.9802L1132.5 24.6022C1133.31 24.7456 1133.76 25.3822 1133.61 26.1937L1133.27 28.1212C1133.13 28.9327 1132.49 29.3782 1131.68 29.2349Z" fill="#019785"/>
<path d="M1135.78 40.9479L1138.11 41.3928C1138.85 41.5346 1139.29 42.1437 1139.37 43.032C1139.48 44.8022 1140.78 46.064 1143.55 46.5926C1146.35 47.1277 1147.69 46.3013 1147.96 44.8847C1148.21 43.6031 1147.66 42.6245 1143.7 40.6783C1140.73 39.2019 1136.01 37.1813 1136.97 32.1896C1137.71 28.2772 1141.5 26.0292 1146.46 26.9769C1150.37 27.7247 1153.23 30.1585 1154 33.5932C1154.2 34.366 1153.69 34.862 1152.85 35.051L1150.56 35.5218C1149.83 35.6626 1149.27 35.1354 1148.91 34.263C1148.48 33.2026 1147.56 31.978 1145.41 31.5654C1143.25 31.1528 1142.29 31.7738 1142.1 32.7519C1141.82 34.2022 1143.25 35.1396 1145.45 36.259C1149.62 38.4189 1154.07 40.179 1153.03 45.6092C1152.2 49.9601 1148.26 52.2835 1142.49 51.1811C1137.1 50.1496 1134.05 46.5255 1134.27 42.0585C1134.32 41.2634 1134.94 40.7868 1135.78 40.9479Z" fill="#019785"/>
<path d="M1157.65 38.3614L1158.26 30.9201C1158.32 30.0918 1158.9 29.6475 1159.71 29.8093L1161.8 30.2273C1162.6 30.3891 1162.97 31.0223 1162.7 31.8101L1160.41 38.9143C1160.23 39.4395 1159.72 39.7222 1158.84 39.5469C1157.97 39.3716 1157.6 38.9136 1157.65 38.3614Z" fill="#019785"/>
<path d="M1190.51 41.0612L1180.81 38.973C1180 38.7996 1179.35 39.2211 1179.18 40.0268L1178.69 42.2759C1178.52 43.0816 1178.95 43.6672 1179.74 43.7662L1188.6 44.8656C1189.42 44.9719 1189.85 45.591 1189.68 46.3967L1189.3 48.1423C1189.13 48.948 1188.46 49.4366 1187.64 49.3303L1178.78 48.231C1177.99 48.1319 1177.33 48.587 1177.16 49.3927L1176.68 51.6083C1176.51 52.414 1176.93 53.0667 1177.74 53.2401L1187.44 55.3283C1188.24 55.5017 1188.67 56.1544 1188.49 56.9601L1188.07 58.9072C1187.9 59.7128 1187.25 60.1343 1186.44 59.9609L1171.7 56.7889C1170.9 56.6154 1170.48 55.9627 1170.65 55.1571L1175.13 34.3439C1175.3 33.5382 1175.96 33.1167 1176.76 33.2901L1191.5 36.4622C1192.31 36.6356 1192.73 37.2883 1192.55 38.094L1192.14 40.0075C1191.97 40.8131 1191.32 41.2346 1190.51 41.0612Z" fill="#019785"/>
<path d="M1212.48 41.2297L1214.82 41.7682C1215.62 41.9529 1216.03 42.6114 1215.85 43.4146L1211.08 64.1632C1210.89 64.9664 1210.24 65.3788 1209.43 65.1941L1202.44 63.5862C1201.64 63.4016 1201.05 62.7381 1201.13 61.9118L1202.45 45.5852C1202.48 45.0267 1202.26 44.5893 1201.69 44.4585C1201.12 44.3278 1200.84 44.6497 1200.71 45.2186L1197.09 60.9475C1196.91 61.7506 1196.25 62.163 1195.44 61.9784L1193.1 61.4398C1192.3 61.2552 1191.89 60.5967 1192.07 59.7935L1196.84 39.0448C1197.03 38.2417 1197.68 37.8293 1198.49 38.0139L1205.48 39.6218C1206.28 39.8064 1206.84 40.4623 1206.79 41.2962L1205.41 57.574C1205.34 58.1583 1205.59 58.6033 1206.2 58.7418C1206.76 58.8726 1207.08 58.5583 1207.22 57.9559L1210.83 42.2606C1211.01 41.4574 1211.67 41.0451 1212.48 41.2297Z" fill="#019785"/>
<path d="M1237.7 48.7238L1237.19 50.7921C1237 51.5928 1236.33 51.9963 1235.53 51.801L1231.2 50.743C1230.4 50.5477 1229.73 50.9513 1229.54 51.7519L1225.65 67.698C1225.45 68.4987 1224.79 68.9022 1223.99 68.7069L1221.65 68.1372C1220.85 67.9419 1220.45 67.2779 1220.64 66.4773L1224.53 50.5312C1224.73 49.7305 1224.32 49.0665 1223.52 48.8712L1219.19 47.8132C1218.39 47.6179 1217.98 46.954 1218.18 46.1533L1218.68 44.085C1218.88 43.2843 1219.54 42.8808 1220.34 43.0761L1236.69 47.0639C1237.49 47.2592 1237.89 47.9232 1237.7 48.7238Z" fill="#019785"/>
<path d="M1257.28 52.3404L1259.6 52.9419C1260.4 53.1481 1260.8 53.8175 1260.59 54.6154L1255.26 75.228C1255.06 76.0259 1254.39 76.4204 1253.59 76.2142L1251.26 75.6127C1250.46 75.4065 1250.07 74.7371 1250.28 73.9392L1251.99 67.3232C1252.19 66.5253 1251.8 65.8559 1251 65.6497L1243.55 63.725C1242.75 63.5188 1242.08 63.9132 1241.88 64.7111L1240.17 71.3271C1239.96 72.125 1239.29 72.5195 1238.49 72.3133L1236.17 71.7118C1235.37 71.5056 1234.98 70.8362 1235.18 70.0383L1240.51 49.4257C1240.71 48.6278 1241.38 48.2333 1242.18 48.4395L1244.51 49.041C1245.31 49.2472 1245.7 49.9166 1245.5 50.7145L1243.79 57.3305C1243.58 58.1284 1243.97 58.7978 1244.77 59.004L1252.22 60.9287C1253.02 61.1349 1253.69 60.7405 1253.89 59.9426L1255.6 53.3266C1255.81 52.5287 1256.48 52.1342 1257.28 52.3404Z" fill="#019785"/>
<path d="M1281.16 76.0059C1279.44 80.7309 1274.75 82.2217 1269.36 80.7385C1263.99 79.2644 1260.73 75.5899 1261.66 70.6465C1261.73 70.1316 1262.01 69.2467 1262.45 68.0158L1266.65 56.2422C1266.94 55.4658 1267.71 55.1089 1268.6 55.3546L1270.82 55.9642C1271.62 56.1826 1271.94 56.8397 1271.68 57.6253L1267.55 69.4171C1267.15 70.624 1266.84 71.6082 1266.79 72.0569C1266.67 74.0534 1268.24 75.1979 1270.69 75.8712C1273.18 76.5536 1275.11 76.3737 1276 74.5865C1276.21 74.1833 1276.45 73.1809 1276.73 71.9376L1279.2 59.6908C1279.35 58.878 1279.99 58.4847 1280.79 58.7031L1283.01 59.3127C1283.9 59.5584 1284.39 60.261 1284.23 61.0739L1281.82 73.3389C1281.58 74.6244 1281.37 75.5275 1281.16 76.0059Z" fill="#019785"/>
<path d="M1285.81 76.1884L1288.09 76.8479C1288.81 77.0582 1289.2 77.7058 1289.19 78.5973C1289.14 80.3706 1290.31 81.7476 1293.02 82.5313C1295.75 83.3246 1297.17 82.6272 1297.57 81.242C1297.94 79.9887 1297.48 78.9634 1293.72 76.6569C1290.9 74.9105 1286.39 72.4596 1287.8 67.5783C1288.91 63.7525 1292.89 61.8666 1297.74 63.2716C1301.57 64.3804 1304.18 67.0693 1304.64 70.5615C1304.77 71.3497 1304.21 71.7957 1303.35 71.9056L1301.03 72.161C1300.29 72.2337 1299.78 71.6563 1299.5 70.7544C1299.18 69.6589 1298.38 68.354 1296.27 67.7423C1294.15 67.1306 1293.14 67.6598 1292.87 68.6163C1292.46 70.0345 1293.79 71.1008 1295.88 72.4199C1299.82 74.9582 1304.09 77.1252 1302.55 82.4352C1301.32 86.6898 1297.18 88.6364 1291.54 87.002C1286.27 85.4727 1283.57 81.5807 1284.21 77.154C1284.33 76.3668 1284.99 75.9494 1285.81 76.1884Z" fill="#019785"/>
<path d="M1315.6 70.2382L1309.48 90.6273C1309.24 91.4165 1308.56 91.7846 1307.77 91.5474L1305.46 90.8556C1304.67 90.6184 1304.31 89.9341 1304.54 89.1448L1310.67 68.7558C1310.91 67.9665 1311.59 67.5985 1312.38 67.8357L1314.68 68.5275C1315.47 68.7647 1315.84 69.449 1315.6 70.2382Z" fill="#019785"/>
<path d="M1329.4 96.8183L1329.46 92.7009C1329.47 91.8754 1328.97 91.2875 1328.14 91.1727L1321.36 90.4204C1320.56 90.3159 1319.75 90.744 1319.28 91.4261L1317.99 93.2532C1317.53 93.9353 1316.74 94.2651 1315.95 94.0192L1313.33 93.1997C1312.54 92.9538 1312.31 92.3392 1312.77 91.6571L1325.36 73.1419C1325.82 72.4598 1326.66 72.1834 1327.48 72.4395L1333.45 74.304C1334.24 74.5499 1334.77 75.2566 1334.76 76.0821L1334.57 98.4698C1334.56 99.2953 1334.04 99.6742 1333.26 99.4283L1330.64 98.6088C1329.85 98.3629 1329.36 97.6336 1329.4 96.8183ZM1326.96 79.183L1323.43 84.5927C1322.97 85.2748 1323.24 85.7911 1324.03 85.8956L1328.48 86.3875C1329.32 86.4695 1329.9 86.0025 1329.92 85.1442L1330.04 80.146C1330.04 79.3532 1329.56 78.8083 1328.8 78.5727C1328.08 78.3473 1327.38 78.5234 1326.96 79.183Z" fill="#019785"/>
<path d="M1339.96 92.6176L1342.21 93.3583C1342.93 93.5945 1343.29 94.2555 1343.25 95.1461C1343.13 96.9165 1344.26 98.3347 1346.93 99.215C1349.64 100.106 1351.08 99.4598 1351.53 98.0899C1351.94 96.8504 1351.52 95.8096 1347.84 93.3694C1345.09 91.5231 1340.67 88.912 1342.26 84.0846C1343.51 80.301 1347.55 78.5591 1352.34 80.1371C1356.13 81.3824 1358.65 84.1635 1358.97 87.6697C1359.08 88.462 1358.5 88.8877 1357.64 88.9669L1355.31 89.1387C1354.57 89.1849 1354.08 88.5896 1353.84 87.6783C1353.55 86.5718 1352.8 85.2391 1350.71 84.552C1348.62 83.865 1347.59 84.3576 1347.28 85.3035C1346.82 86.706 1348.12 87.8195 1350.15 89.2126C1354.01 91.8909 1358.2 94.2097 1356.47 99.4611C1355.08 103.669 1350.88 105.466 1345.3 103.63C1340.08 101.912 1337.52 97.926 1338.32 93.5251C1338.47 92.7427 1339.14 92.3492 1339.96 92.6176Z" fill="#019785"/>
<path d="M1381.51 91.7502L1380.82 93.7626C1380.55 94.5416 1379.85 94.8816 1379.07 94.6126L1374.85 93.1555C1374.07 92.8865 1373.37 93.2265 1373.1 94.0054L1367.75 109.52C1367.48 110.299 1366.78 110.639 1366 110.37L1363.73 109.586C1362.95 109.317 1362.61 108.618 1362.88 107.839L1368.23 92.3242C1368.5 91.5452 1368.16 90.8465 1367.38 90.5775L1363.16 89.1204C1362.39 88.8514 1362.05 88.1528 1362.31 87.3738L1363.01 85.3614C1363.28 84.5824 1363.98 84.2425 1364.76 84.5115L1380.66 90.0036C1381.44 90.2726 1381.78 90.9712 1381.51 91.7502Z" fill="#019785"/>
<path d="M1378.97 105.835L1381.2 106.643C1381.91 106.9 1382.25 107.572 1382.18 108.461C1382.02 110.227 1383.1 111.679 1385.74 112.639C1388.42 113.61 1389.88 113.008 1390.38 111.652C1390.82 110.425 1390.43 109.372 1386.83 106.823C1384.13 104.895 1379.79 102.152 1381.53 97.3749C1382.89 93.6303 1386.98 92.0105 1391.72 93.7316C1395.47 95.0898 1397.9 97.9452 1398.13 101.46C1398.2 102.255 1397.62 102.663 1396.76 102.716L1394.42 102.818C1393.68 102.842 1393.21 102.232 1392.99 101.314C1392.74 100.2 1392.03 98.8448 1389.96 98.0955C1387.89 97.3462 1386.85 97.8076 1386.51 98.7438C1386.01 100.132 1387.27 101.284 1389.26 102.737C1393.03 105.53 1397.15 107.973 1395.27 113.171C1393.76 117.335 1389.5 119.005 1383.98 117.003C1378.81 115.129 1376.38 111.068 1377.31 106.693C1377.48 105.915 1378.16 105.542 1378.97 105.835Z" fill="#019785"/>
<path d="M1402.07 116.383L1400.75 115.886C1399.98 115.594 1399.66 114.886 1399.92 114.103L1404.72 100.242C1404.98 99.4587 1405.68 99.139 1406.46 99.4303L1408.67 100.268C1409.44 100.559 1409.76 101.268 1409.44 102.026L1403.87 115.596C1403.58 116.367 1402.84 116.675 1402.07 116.383ZM1400.96 117.361C1402.51 117.944 1403.15 119.437 1402.56 121.011C1401.98 122.552 1400.5 123.244 1398.96 122.661C1397.42 122.078 1396.74 120.574 1397.32 119.032C1397.92 117.458 1399.42 116.778 1400.96 117.361Z" fill="#019785"/>
<path fill-rule="evenodd" clip-rule="evenodd" d="M0 228.429C77.8604 264.952 292.201 302.591 526.683 160.966C819.784 -16.0642 1198.42 84.8911 1441 160.966L1440.92 284H0V228.429Z" fill="#3673A2"/>
</svg>
