<svg width="435" height="435" viewBox="0 0 435 435" fill="none" xmlns="http://www.w3.org/2000/svg">
<path fill-rule="evenodd" clip-rule="evenodd" d="M435 0H0V435H435V0ZM33 22C26.9249 22 22 26.9249 22 33V402C22 408.075 26.9249 413 33 413H402C408.075 413 413 408.075 413 402V33C413 26.9249 408.075 22 402 22H33Z" fill="#FE8B3C"/>
<rect x="20" y="20" width="395" height="395" rx="12" stroke="#FFE6E6" stroke-width="4"/>
<mask id="path-3-inside-1_3067_4289" fill="white">
<path d="M22 413C22 418.835 25.4241 424.431 31.519 428.556C37.614 432.682 45.8805 435 54.5 435C63.1195 435 71.386 432.682 77.481 428.556C83.5759 424.431 87 418.835 87 413L54.5 413H22Z"/>
</mask>
<path d="M22 413C22 418.835 25.4241 424.431 31.519 428.556C37.614 432.682 45.8805 435 54.5 435C63.1195 435 71.386 432.682 77.481 428.556C83.5759 424.431 87 418.835 87 413L54.5 413H22Z" fill="#FFE6E6" stroke="#FFE6E6" stroke-width="2" mask="url(#path-3-inside-1_3067_4289)"/>
<mask id="path-4-inside-2_3067_4289" fill="white">
<path d="M87 413C87 418.835 90.4241 424.431 96.519 428.556C102.614 432.682 110.88 435 119.5 435C128.12 435 136.386 432.682 142.481 428.556C148.576 424.431 152 418.835 152 413L119.5 413H87Z"/>
</mask>
<path d="M87 413C87 418.835 90.4241 424.431 96.519 428.556C102.614 432.682 110.88 435 119.5 435C128.12 435 136.386 432.682 142.481 428.556C148.576 424.431 152 418.835 152 413L119.5 413H87Z" fill="#FFE6E6" stroke="#FFE6E6" stroke-width="2" mask="url(#path-4-inside-2_3067_4289)"/>
<mask id="path-5-inside-3_3067_4289" fill="white">
<path d="M22 22C16.1652 22 10.5695 25.4241 6.44365 31.519C2.31785 37.614 4.40512e-07 45.8805 0 54.5C-4.40512e-07 63.1195 2.31785 71.386 6.44365 77.481C10.5694 83.5759 16.1652 87 22 87L22 54.5V22Z"/>
</mask>
<path d="M22 22C16.1652 22 10.5695 25.4241 6.44365 31.519C2.31785 37.614 4.40512e-07 45.8805 0 54.5C-4.40512e-07 63.1195 2.31785 71.386 6.44365 77.481C10.5694 83.5759 16.1652 87 22 87L22 54.5V22Z" fill="#FFE6E6" stroke="#FFE6E6" stroke-width="2" mask="url(#path-5-inside-3_3067_4289)"/>
<mask id="path-6-inside-4_3067_4289" fill="white">
<path d="M22 87C16.1652 87 10.5695 90.4241 6.44365 96.519C2.31785 102.614 4.40512e-07 110.88 0 119.5C-4.40512e-07 128.12 2.31785 136.386 6.44365 142.481C10.5694 148.576 16.1652 152 22 152L22 119.5V87Z"/>
</mask>
<path d="M22 87C16.1652 87 10.5695 90.4241 6.44365 96.519C2.31785 102.614 4.40512e-07 110.88 0 119.5C-4.40512e-07 128.12 2.31785 136.386 6.44365 142.481C10.5694 148.576 16.1652 152 22 152L22 119.5V87Z" fill="#FFE6E6" stroke="#FFE6E6" stroke-width="2" mask="url(#path-6-inside-4_3067_4289)"/>
<mask id="path-7-inside-5_3067_4289" fill="white">
<path d="M22 152C16.1652 152 10.5695 155.477 6.44365 161.665C2.31785 167.854 4.40512e-07 176.248 0 185C-4.40512e-07 193.752 2.31785 202.146 6.44365 208.335C10.5694 214.523 16.1652 218 22 218L22 185V152Z"/>
</mask>
<path d="M22 152C16.1652 152 10.5695 155.477 6.44365 161.665C2.31785 167.854 4.40512e-07 176.248 0 185C-4.40512e-07 193.752 2.31785 202.146 6.44365 208.335C10.5694 214.523 16.1652 218 22 218L22 185V152Z" fill="#FFE6E6" stroke="#FFE6E6" stroke-width="2" mask="url(#path-7-inside-5_3067_4289)"/>
<mask id="path-8-inside-6_3067_4289" fill="white">
<path d="M22 218C16.1652 218 10.5695 221.424 6.44365 227.519C2.31785 233.614 4.40512e-07 241.88 0 250.5C-4.40512e-07 259.12 2.31785 267.386 6.44365 273.481C10.5694 279.576 16.1652 283 22 283L22 250.5V218Z"/>
</mask>
<path d="M22 218C16.1652 218 10.5695 221.424 6.44365 227.519C2.31785 233.614 4.40512e-07 241.88 0 250.5C-4.40512e-07 259.12 2.31785 267.386 6.44365 273.481C10.5694 279.576 16.1652 283 22 283L22 250.5V218Z" fill="#FFE6E6" stroke="#FFE6E6" stroke-width="2" mask="url(#path-8-inside-6_3067_4289)"/>
<mask id="path-9-inside-7_3067_4289" fill="white">
<path d="M22 283C16.1652 283 10.5695 286.424 6.44365 292.519C2.31785 298.614 4.40512e-07 306.88 0 315.5C-4.40512e-07 324.12 2.31785 332.386 6.44365 338.481C10.5694 344.576 16.1652 348 22 348L22 315.5V283Z"/>
</mask>
<path d="M22 283C16.1652 283 10.5695 286.424 6.44365 292.519C2.31785 298.614 4.40512e-07 306.88 0 315.5C-4.40512e-07 324.12 2.31785 332.386 6.44365 338.481C10.5694 344.576 16.1652 348 22 348L22 315.5V283Z" fill="#FFE6E6" stroke="#FFE6E6" stroke-width="2" mask="url(#path-9-inside-7_3067_4289)"/>
<mask id="path-10-inside-8_3067_4289" fill="white">
<path d="M22 348C16.1652 348 10.5695 351.424 6.44365 357.519C2.31785 363.614 4.40512e-07 371.88 0 380.5C-4.40512e-07 389.12 2.31785 397.386 6.44365 403.481C10.5694 409.576 16.1652 413 22 413L22 380.5V348Z"/>
</mask>
<path d="M22 348C16.1652 348 10.5695 351.424 6.44365 357.519C2.31785 363.614 4.40512e-07 371.88 0 380.5C-4.40512e-07 389.12 2.31785 397.386 6.44365 403.481C10.5694 409.576 16.1652 413 22 413L22 380.5V348Z" fill="#FFE6E6" stroke="#FFE6E6" stroke-width="2" mask="url(#path-10-inside-8_3067_4289)"/>
<mask id="path-11-inside-9_3067_4289" fill="white">
<path d="M413 87C418.835 87 424.431 83.5759 428.556 77.481C432.682 71.386 435 63.1195 435 54.5C435 45.8805 432.682 37.614 428.556 31.519C424.431 25.4241 418.835 22 413 22L413 54.5V87Z"/>
</mask>
<path d="M413 87C418.835 87 424.431 83.5759 428.556 77.481C432.682 71.386 435 63.1195 435 54.5C435 45.8805 432.682 37.614 428.556 31.519C424.431 25.4241 418.835 22 413 22L413 54.5V87Z" fill="#FFE6E6" stroke="#FFE6E6" stroke-width="2" mask="url(#path-11-inside-9_3067_4289)"/>
<mask id="path-12-inside-10_3067_4289" fill="white">
<path d="M413 152C418.835 152 424.431 148.576 428.556 142.481C432.682 136.386 435 128.12 435 119.5C435 110.88 432.682 102.614 428.556 96.519C424.431 90.4241 418.835 87 413 87L413 119.5V152Z"/>
</mask>
<path d="M413 152C418.835 152 424.431 148.576 428.556 142.481C432.682 136.386 435 128.12 435 119.5C435 110.88 432.682 102.614 428.556 96.519C424.431 90.4241 418.835 87 413 87L413 119.5V152Z" fill="#FFE6E6" stroke="#FFE6E6" stroke-width="2" mask="url(#path-12-inside-10_3067_4289)"/>
<mask id="path-13-inside-11_3067_4289" fill="white">
<path d="M413 218C418.835 218 424.431 214.523 428.556 208.335C432.682 202.146 435 193.752 435 185C435 176.248 432.682 167.854 428.556 161.665C424.431 155.477 418.835 152 413 152L413 185V218Z"/>
</mask>
<path d="M413 218C418.835 218 424.431 214.523 428.556 208.335C432.682 202.146 435 193.752 435 185C435 176.248 432.682 167.854 428.556 161.665C424.431 155.477 418.835 152 413 152L413 185V218Z" fill="#FFE6E6" stroke="#FFE6E6" stroke-width="2" mask="url(#path-13-inside-11_3067_4289)"/>
<mask id="path-14-inside-12_3067_4289" fill="white">
<path d="M413 283C418.835 283 424.431 279.576 428.556 273.481C432.682 267.386 435 259.12 435 250.5C435 241.88 432.682 233.614 428.556 227.519C424.431 221.424 418.835 218 413 218L413 250.5V283Z"/>
</mask>
<path d="M413 283C418.835 283 424.431 279.576 428.556 273.481C432.682 267.386 435 259.12 435 250.5C435 241.88 432.682 233.614 428.556 227.519C424.431 221.424 418.835 218 413 218L413 250.5V283Z" fill="#FFE6E6" stroke="#FFE6E6" stroke-width="2" mask="url(#path-14-inside-12_3067_4289)"/>
<mask id="path-15-inside-13_3067_4289" fill="white">
<path d="M413 348C418.835 348 424.431 344.576 428.556 338.481C432.682 332.386 435 324.12 435 315.5C435 306.88 432.682 298.614 428.556 292.519C424.431 286.424 418.835 283 413 283L413 315.5V348Z"/>
</mask>
<path d="M413 348C418.835 348 424.431 344.576 428.556 338.481C432.682 332.386 435 324.12 435 315.5C435 306.88 432.682 298.614 428.556 292.519C424.431 286.424 418.835 283 413 283L413 315.5V348Z" fill="#FFE6E6" stroke="#FFE6E6" stroke-width="2" mask="url(#path-15-inside-13_3067_4289)"/>
<mask id="path-16-inside-14_3067_4289" fill="white">
<path d="M413 413C418.835 413 424.431 409.576 428.556 403.481C432.682 397.386 435 389.12 435 380.5C435 371.88 432.682 363.614 428.556 357.519C424.431 351.424 418.835 348 413 348L413 380.5V413Z"/>
</mask>
<path d="M413 413C418.835 413 424.431 409.576 428.556 403.481C432.682 397.386 435 389.12 435 380.5C435 371.88 432.682 363.614 428.556 357.519C424.431 351.424 418.835 348 413 348L413 380.5V413Z" fill="#FFE6E6" stroke="#FFE6E6" stroke-width="2" mask="url(#path-16-inside-14_3067_4289)"/>
<mask id="path-17-inside-15_3067_4289" fill="white">
<path d="M152 413C152 418.835 155.424 424.431 161.519 428.556C167.614 432.682 175.88 435 184.5 435C193.12 435 201.386 432.682 207.481 428.556C213.576 424.431 217 418.835 217 413L184.5 413H152Z"/>
</mask>
<path d="M152 413C152 418.835 155.424 424.431 161.519 428.556C167.614 432.682 175.88 435 184.5 435C193.12 435 201.386 432.682 207.481 428.556C213.576 424.431 217 418.835 217 413L184.5 413H152Z" fill="#FFE6E6" stroke="#FFE6E6" stroke-width="2" mask="url(#path-17-inside-15_3067_4289)"/>
<mask id="path-18-inside-16_3067_4289" fill="white">
<path d="M218 413C218 418.835 221.424 424.431 227.519 428.556C233.614 432.682 241.88 435 250.5 435C259.12 435 267.386 432.682 273.481 428.556C279.576 424.431 283 418.835 283 413L250.5 413H218Z"/>
</mask>
<path d="M218 413C218 418.835 221.424 424.431 227.519 428.556C233.614 432.682 241.88 435 250.5 435C259.12 435 267.386 432.682 273.481 428.556C279.576 424.431 283 418.835 283 413L250.5 413H218Z" fill="#FFE6E6" stroke="#FFE6E6" stroke-width="2" mask="url(#path-18-inside-16_3067_4289)"/>
<mask id="path-19-inside-17_3067_4289" fill="white">
<path d="M283 413C283 418.835 286.424 424.431 292.519 428.556C298.614 432.682 306.88 435 315.5 435C324.12 435 332.386 432.682 338.481 428.556C344.576 424.431 348 418.835 348 413L315.5 413H283Z"/>
</mask>
<path d="M283 413C283 418.835 286.424 424.431 292.519 428.556C298.614 432.682 306.88 435 315.5 435C324.12 435 332.386 432.682 338.481 428.556C344.576 424.431 348 418.835 348 413L315.5 413H283Z" fill="#FFE6E6" stroke="#FFE6E6" stroke-width="2" mask="url(#path-19-inside-17_3067_4289)"/>
<mask id="path-20-inside-18_3067_4289" fill="white">
<path d="M348 413C348 418.835 351.424 424.431 357.519 428.556C363.614 432.682 371.88 435 380.5 435C389.12 435 397.386 432.682 403.481 428.556C409.576 424.431 413 418.835 413 413L380.5 413H348Z"/>
</mask>
<path d="M348 413C348 418.835 351.424 424.431 357.519 428.556C363.614 432.682 371.88 435 380.5 435C389.12 435 397.386 432.682 403.481 428.556C409.576 424.431 413 418.835 413 413L380.5 413H348Z" fill="#FFE6E6" stroke="#FFE6E6" stroke-width="2" mask="url(#path-20-inside-18_3067_4289)"/>
<mask id="path-21-inside-19_3067_4289" fill="white">
<path d="M87 22C87 16.1652 83.5759 10.5695 77.481 6.44365C71.386 2.31785 63.1195 4.40512e-07 54.5 0C45.8805 -4.40512e-07 37.614 2.31785 31.519 6.44365C25.4241 10.5694 22 16.1652 22 22L54.5 22H87Z"/>
</mask>
<path d="M87 22C87 16.1652 83.5759 10.5695 77.481 6.44365C71.386 2.31785 63.1195 4.40512e-07 54.5 0C45.8805 -4.40512e-07 37.614 2.31785 31.519 6.44365C25.4241 10.5694 22 16.1652 22 22L54.5 22H87Z" fill="#FFE6E6" stroke="#FFE6E6" stroke-width="2" mask="url(#path-21-inside-19_3067_4289)"/>
<mask id="path-22-inside-20_3067_4289" fill="white">
<path d="M152 22C152 16.1652 148.576 10.5695 142.481 6.44365C136.386 2.31785 128.12 4.40512e-07 119.5 0C110.88 -4.40512e-07 102.614 2.31785 96.519 6.44365C90.4241 10.5694 87 16.1652 87 22L119.5 22H152Z"/>
</mask>
<path d="M152 22C152 16.1652 148.576 10.5695 142.481 6.44365C136.386 2.31785 128.12 4.40512e-07 119.5 0C110.88 -4.40512e-07 102.614 2.31785 96.519 6.44365C90.4241 10.5694 87 16.1652 87 22L119.5 22H152Z" fill="#FFE6E6" stroke="#FFE6E6" stroke-width="2" mask="url(#path-22-inside-20_3067_4289)"/>
<mask id="path-23-inside-21_3067_4289" fill="white">
<path d="M217 22C217 16.1652 213.576 10.5695 207.481 6.44365C201.386 2.31785 193.12 4.40512e-07 184.5 0C175.88 -4.40512e-07 167.614 2.31785 161.519 6.44365C155.424 10.5694 152 16.1652 152 22L184.5 22H217Z"/>
</mask>
<path d="M217 22C217 16.1652 213.576 10.5695 207.481 6.44365C201.386 2.31785 193.12 4.40512e-07 184.5 0C175.88 -4.40512e-07 167.614 2.31785 161.519 6.44365C155.424 10.5694 152 16.1652 152 22L184.5 22H217Z" fill="#FFE6E6" stroke="#FFE6E6" stroke-width="2" mask="url(#path-23-inside-21_3067_4289)"/>
<mask id="path-24-inside-22_3067_4289" fill="white">
<path d="M283 22C283 16.1652 279.576 10.5695 273.481 6.44365C267.386 2.31785 259.12 4.40512e-07 250.5 0C241.88 -4.40512e-07 233.614 2.31785 227.519 6.44365C221.424 10.5694 218 16.1652 218 22L250.5 22H283Z"/>
</mask>
<path d="M283 22C283 16.1652 279.576 10.5695 273.481 6.44365C267.386 2.31785 259.12 4.40512e-07 250.5 0C241.88 -4.40512e-07 233.614 2.31785 227.519 6.44365C221.424 10.5694 218 16.1652 218 22L250.5 22H283Z" fill="#FFE6E6" stroke="#FFE6E6" stroke-width="2" mask="url(#path-24-inside-22_3067_4289)"/>
<mask id="path-25-inside-23_3067_4289" fill="white">
<path d="M348 22C348 16.1652 344.576 10.5695 338.481 6.44365C332.386 2.31785 324.12 4.40512e-07 315.5 0C306.88 -4.40512e-07 298.614 2.31785 292.519 6.44365C286.424 10.5694 283 16.1652 283 22L315.5 22H348Z"/>
</mask>
<path d="M348 22C348 16.1652 344.576 10.5695 338.481 6.44365C332.386 2.31785 324.12 4.40512e-07 315.5 0C306.88 -4.40512e-07 298.614 2.31785 292.519 6.44365C286.424 10.5694 283 16.1652 283 22L315.5 22H348Z" fill="#FFE6E6" stroke="#FFE6E6" stroke-width="2" mask="url(#path-25-inside-23_3067_4289)"/>
<mask id="path-26-inside-24_3067_4289" fill="white">
<path d="M413 22C413 16.1652 409.576 10.5695 403.481 6.44365C397.386 2.31785 389.12 4.40512e-07 380.5 0C371.88 -4.40512e-07 363.614 2.31785 357.519 6.44365C351.424 10.5694 348 16.1652 348 22L380.5 22H413Z"/>
</mask>
<path d="M413 22C413 16.1652 409.576 10.5695 403.481 6.44365C397.386 2.31785 389.12 4.40512e-07 380.5 0C371.88 -4.40512e-07 363.614 2.31785 357.519 6.44365C351.424 10.5694 348 16.1652 348 22L380.5 22H413Z" fill="#FFE6E6" stroke="#FFE6E6" stroke-width="2" mask="url(#path-26-inside-24_3067_4289)"/>
</svg>
