<?xml version="1.0" standalone="no"?>
<!DOCTYPE svg PUBLIC "-//W3C//DTD SVG 20010904//EN"
 "http://www.w3.org/TR/2001/REC-SVG-20010904/DTD/svg10.dtd">
<svg version="1.0" xmlns="http://www.w3.org/2000/svg"
 width="900.000000pt" height="900.000000pt" viewBox="0 0 900.000000 900.000000"
 preserveAspectRatio="xMidYMid meet">

<g transform="translate(0.000000,900.000000) scale(0.100000,-0.100000)"
fill="#000000" stroke="none">
<path d="M2437 6480 c-121 -21 -227 -102 -284 -218 -36 -71 -38 -81 -37 -166
1 -116 26 -184 96 -261 59 -65 116 -101 190 -121 79 -21 4117 -21 4196 0 74
20 131 56 190 121 69 75 95 145 96 255 2 171 -90 307 -251 372 l-58 23 -2045
1 c-1125 1 -2067 -2 -2093 -6z"/>
<path d="M2404 4881 c-57 -14 -128 -56 -176 -104 -192 -191 -138 -508 108
-632 l59 -30 2105 0 2105 0 63 33 c84 44 147 108 185 190 28 60 31 77 31 162
0 86 -3 101 -31 163 -39 81 -106 150 -189 192 l-59 30 -2085 2 c-1147 0 -2099
-2 -2116 -6z"/>
<path d="M2399 3286 c-67 -18 -130 -58 -187 -121 -70 -77 -96 -145 -96 -260 0
-80 3 -97 31 -157 58 -124 167 -207 300 -228 78 -13 4028 -13 4106 0 222 36
371 248 327 465 -7 33 -24 81 -38 108 -34 63 -119 142 -189 175 l-58 27 -2075
2 c-1623 1 -2085 -1 -2121 -11z"/>
</g>
</svg>
