<svg width="36" height="37" viewBox="0 0 36 37" fill="none" xmlns="http://www.w3.org/2000/svg">
<path d="M25.1365 3.49023H10.3502C6.26706 3.49023 2.95703 6.80027 2.95703 10.8834V25.6697C2.95703 29.7529 6.26706 33.0629 10.3502 33.0629H25.1365C29.2196 33.0629 32.5297 29.7529 32.5297 25.6697V10.8834C32.5297 6.80027 29.2196 3.49023 25.1365 3.49023Z" stroke="#FFE6E6" stroke-linecap="round" stroke-linejoin="round"/>
<path d="M23.6577 17.3448C23.8402 18.5754 23.63 19.8322 23.057 20.9364C22.484 22.0407 21.5775 22.9361 20.4662 23.4955C19.355 24.0548 18.0957 24.2494 16.8675 24.0518C15.6392 23.8542 14.5046 23.2743 13.6249 22.3946C12.7452 21.5149 12.1653 20.3803 11.9677 19.152C11.7701 17.9238 11.9647 16.6645 12.524 15.5533C13.0834 14.4421 13.9788 13.5355 15.0831 12.9625C16.1873 12.3895 17.4441 12.1794 18.6747 12.3618C19.9299 12.548 21.092 13.1329 21.9893 14.0302C22.8866 14.9275 23.4715 16.0896 23.6577 17.3448Z" stroke="#FFE6E6" stroke-linecap="round" stroke-linejoin="round"/>
<path d="M25.876 10.1445H25.8905" stroke="#FFE6E6" stroke-width="2" stroke-linecap="round" stroke-linejoin="round"/>
</svg>
