<svg width="36" height="37" viewBox="0 0 36 37" fill="none" xmlns="http://www.w3.org/2000/svg">
<path d="M23.6579 12.3623C26.0109 12.3623 28.2675 13.297 29.9312 14.9608C31.595 16.6246 32.5297 18.8812 32.5297 21.2341V31.5845H26.6152V21.2341C26.6152 20.4498 26.3036 19.6976 25.749 19.143C25.1944 18.5884 24.4422 18.2768 23.6579 18.2768C22.8736 18.2768 22.1214 18.5884 21.5668 19.143C21.0122 19.6976 20.7007 20.4498 20.7007 21.2341V31.5845H14.7861V21.2341C14.7861 18.8812 15.7208 16.6246 17.3846 14.9608C19.0484 13.297 21.305 12.3623 23.6579 12.3623Z" stroke="#FFE6E6" stroke-linecap="round" stroke-linejoin="round"/>
<path d="M8.87156 13.8408H2.95703V31.5844H8.87156V13.8408Z" stroke="#FFE6E6" stroke-linecap="round" stroke-linejoin="round"/>
<path d="M5.9143 9.40476C7.54755 9.40476 8.87156 8.08075 8.87156 6.4475C8.87156 4.81425 7.54755 3.49023 5.9143 3.49023C4.28104 3.49023 2.95703 4.81425 2.95703 6.4475C2.95703 8.08075 4.28104 9.40476 5.9143 9.40476Z" stroke="#FFE6E6" stroke-linecap="round" stroke-linejoin="round"/>
</svg>
