<svg width="27" height="28" viewBox="0 0 27 28" fill="none" xmlns="http://www.w3.org/2000/svg">
<path d="M6.74298 2.47363L3.37109 6.96948V22.705C3.37109 23.3011 3.60793 23.8729 4.0295 24.2945C4.45106 24.716 5.02283 24.9529 5.61902 24.9529H21.3545C21.9507 24.9529 22.5224 24.716 22.944 24.2945C23.3656 23.8729 23.6024 23.3011 23.6024 22.705V6.96948L20.2305 2.47363H6.74298Z" stroke="#FFE6E6" stroke-linecap="round" stroke-linejoin="round"/>
<path d="M3.37109 6.96973H23.6024" stroke="#FFE6E6" stroke-linecap="round" stroke-linejoin="round"/>
<path d="M17.9839 11.4648C17.9839 12.6572 17.5102 13.8008 16.6671 14.6439C15.8239 15.487 14.6804 15.9607 13.488 15.9607C12.2957 15.9607 11.1521 15.487 10.309 14.6439C9.46586 13.8008 8.99219 12.6572 8.99219 11.4648" stroke="#FFE6E6" stroke-linecap="round" stroke-linejoin="round"/>
</svg>
